<svg width="45" height="47" viewBox="0 0 45 47" fill="none" xmlns="http://www.w3.org/2000/svg">
<path d="M1.43675 19.0837L26.9625 44.8338C27.3352 45.2098 27.1554 45.8481 26.6373 45.9457C25.7646 46.1101 24.883 46.2224 23.9971 46.2819C23.9026 46.2879 23.8079 46.2734 23.7194 46.2395C23.6308 46.2056 23.5505 46.153 23.4838 46.0852L0.196258 22.593C0.129066 22.5257 0.076912 22.4447 0.043291 22.3554C0.00967002 22.2661 -0.00464121 22.1705 0.0013164 22.0752C0.0610821 21.1717 0.173231 20.283 0.334598 19.4118C0.431278 18.8892 1.06409 18.7078 1.43675 19.0837ZM0.717451 29.5098C0.546942 28.8689 1.29753 28.4646 1.76265 28.9338L17.198 44.5051C17.6633 44.9743 17.2625 45.7313 16.6273 45.5594C8.8876 43.4661 2.79273 37.3177 0.717451 29.5098ZM2.95462 12.2657C3.17136 11.8871 3.68359 11.8289 3.98998 12.1382L33.8477 42.258C34.1543 42.5672 34.0968 43.084 33.7211 43.3026C33.0875 43.6717 32.4363 44.0093 31.77 44.3143C31.5186 44.4295 31.2233 44.3714 31.0282 44.1742L2.09048 14.9829C1.89519 14.7857 1.83753 14.4881 1.95161 14.2344C2.25395 13.5621 2.58868 12.9053 2.95462 12.266V12.2657ZM22.4753 0.887695C34.9154 0.887695 45 11.0609 45 23.6103C45 30.2725 42.158 36.2647 37.6302 40.4209C37.3688 40.661 36.9678 40.645 36.7179 40.393L5.83885 9.24261C5.58906 8.99045 5.57342 8.58597 5.81107 8.32229C9.93122 3.75471 15.8714 0.887695 22.4753 0.887695Z" fill="#DEE6FF"/>
</svg>
