<svg width="62" height="62" viewBox="0 0 62 62" fill="none" xmlns="http://www.w3.org/2000/svg">
<path opacity="0.2" fill-rule="evenodd" clip-rule="evenodd" d="M21.7 21.7V46.5H46.5V21.7H21.7ZM17.05 15.5C16.6389 15.5 16.2447 15.6633 15.954 15.954C15.6633 16.2447 15.5 16.6389 15.5 17.05V51.15C15.5 51.5611 15.6633 51.9553 15.954 52.246C16.2447 52.5367 16.6389 52.7 17.05 52.7H51.15C51.5611 52.7 51.9553 52.5367 52.246 52.246C52.5367 51.9553 52.7 51.5611 52.7 51.15V17.05C52.7 16.6389 52.5367 16.2447 52.246 15.954C51.9553 15.6633 51.5611 15.5 51.15 15.5H17.05Z" fill="#FF0000"/>
<path fill-rule="evenodd" clip-rule="evenodd" d="M13.95 15.5C13.95 15.0889 14.1133 14.6947 14.404 14.404C14.6947 14.1133 15.0889 13.95 15.5 13.95H46.5C46.9111 13.95 47.3053 14.1133 47.596 14.404C47.8867 14.6947 48.05 15.0889 48.05 15.5V46.5C48.05 46.9111 47.8867 47.3053 47.596 47.596C47.3053 47.8867 46.9111 48.05 46.5 48.05H15.5C15.0889 48.05 14.6947 47.8867 14.404 47.596C14.1133 47.3053 13.95 46.9111 13.95 46.5V15.5ZM17.05 17.05V44.95H44.95V17.05H17.05Z" fill="white"/>
</svg>
